<svg width="181" height="54" fill="none" xmlns="http://www.w3.org/2000/svg"><rect width="181" height="54" rx="8" fill="#000"/><path d="M38.853 25.52a7.307 7.307 0 0 1 3.48-6.131 7.48 7.48 0 0 0-5.894-3.187c-2.48-.26-4.884 1.484-6.148 1.484-1.288 0-3.234-1.458-5.33-1.415a7.85 7.85 0 0 0-6.605 4.028c-2.856 4.945-.725 12.213 2.01 16.21 1.37 1.957 2.97 4.144 5.062 4.066 2.049-.085 2.814-1.306 5.287-1.306 2.45 0 3.167 1.306 5.303 1.257 2.198-.036 3.583-1.966 4.903-3.942a16.19 16.19 0 0 0 2.243-4.567 7.062 7.062 0 0 1-4.311-6.497zM34.818 13.573a7.196 7.196 0 0 0 1.646-5.155 7.321 7.321 0 0 0-4.737 2.451 6.846 6.846 0 0 0-1.689 4.964 6.054 6.054 0 0 0 4.78-2.26zM64.746 35.62h-6.99l-1.679 4.957h-2.96l6.62-18.34h3.076l6.621 18.34h-3.01l-1.678-4.957zm-6.266-2.287h5.54l-2.73-8.045h-.077l-2.733 8.045zM83.734 33.892c0 4.155-2.224 6.825-5.58 6.825a4.533 4.533 0 0 1-4.207-2.34h-.064V45H71.14V27.206h2.657v2.224h.05a4.742 4.742 0 0 1 4.257-2.364c3.394 0 5.63 2.683 5.63 6.826zm-2.821 0c0-2.707-1.4-4.487-3.534-4.487-2.097 0-3.507 1.818-3.507 4.487 0 2.694 1.41 4.498 3.507 4.498 2.135 0 3.534-1.766 3.534-4.498zM98.45 33.892c0 4.155-2.224 6.825-5.58 6.825a4.532 4.532 0 0 1-4.207-2.34H88.6V45h-2.745V27.206h2.657v2.224h.05a4.743 4.743 0 0 1 4.258-2.364c3.393 0 5.63 2.683 5.63 6.826zm-2.821 0c0-2.707-1.399-4.486-3.533-4.486-2.097 0-3.508 1.817-3.508 4.486 0 2.694 1.41 4.498 3.508 4.498 2.134 0 3.533-1.766 3.533-4.498zM108.176 35.467c.203 1.819 1.97 3.013 4.384 3.013 2.314 0 3.978-1.194 3.978-2.834 0-1.424-1.004-2.276-3.381-2.86l-2.376-.572c-3.368-.814-4.931-2.389-4.931-4.944 0-3.164 2.757-5.338 6.673-5.338 3.875 0 6.531 2.174 6.621 5.338h-2.771c-.165-1.83-1.678-2.935-3.889-2.935s-3.724 1.118-3.724 2.744c0 1.297.966 2.06 3.33 2.644l2.021.496c3.762.89 5.326 2.401 5.326 5.084 0 3.43-2.733 5.58-7.08 5.58-4.067 0-6.813-2.099-6.99-5.416h2.809zM125.36 24.042v3.164h2.542v2.174h-2.542v7.37c0 1.146.509 1.68 1.626 1.68.302-.006.604-.027.903-.064v2.16a7.53 7.53 0 0 1-1.524.127c-2.707 0-3.763-1.017-3.763-3.61V29.38h-1.944v-2.174h1.944v-3.164h2.758zM129.375 33.892c0-4.207 2.477-6.85 6.341-6.85 3.877 0 6.343 2.643 6.343 6.85 0 4.219-2.453 6.85-6.343 6.85-3.888 0-6.341-2.631-6.341-6.85zm9.887 0c0-2.886-1.322-4.589-3.546-4.589-2.224 0-3.545 1.716-3.545 4.59 0 2.897 1.321 4.587 3.545 4.587s3.546-1.69 3.546-4.588zM144.321 27.206h2.618v2.276h.063a3.188 3.188 0 0 1 3.216-2.416 4.24 4.24 0 0 1 .941.103v2.567a3.84 3.84 0 0 0-1.233-.166 2.769 2.769 0 0 0-2.74 1.9c-.124.378-.165.78-.12 1.176v7.93h-2.745v-13.37zM163.812 36.65c-.369 2.427-2.732 4.093-5.757 4.093-3.889 0-6.304-2.606-6.304-6.787 0-4.194 2.428-6.914 6.189-6.914 3.699 0 6.025 2.541 6.025 6.595v.94h-9.443v.166a3.47 3.47 0 0 0 .944 2.706 3.476 3.476 0 0 0 2.653 1.081 3.024 3.024 0 0 0 3.087-1.88h2.606zm-9.277-3.99h6.684a3.205 3.205 0 0 0-1.986-3.152c-.41-.17-.85-.252-1.293-.242a3.389 3.389 0 0 0-3.148 2.09 3.385 3.385 0 0 0-.257 1.303zM58.136 8.434a3.898 3.898 0 0 1 4.146 4.379c0 2.815-1.522 4.433-4.146 4.433h-3.183V8.434h3.183zM56.32 16h1.662a2.77 2.77 0 0 0 2.906-3.17 2.777 2.777 0 0 0-2.906-3.15H56.32V16zM63.828 13.918a3.15 3.15 0 1 1 6.272 0 3.15 3.15 0 1 1-6.272 0zm4.922 0c0-1.441-.647-2.284-1.784-2.284-1.14 0-1.782.843-1.782 2.284 0 1.453.641 2.29 1.782 2.29 1.137 0 1.784-.843 1.784-2.29zM78.437 17.246h-1.361l-1.374-4.898h-.104l-1.369 4.898h-1.348l-1.833-6.65h1.33l1.192 5.074h.098l1.367-5.074h1.26l1.367 5.074h.103l1.186-5.074h1.312l-1.826 6.65zM81.805 10.596h1.263v1.056h.098a1.991 1.991 0 0 1 1.985-1.184 2.163 2.163 0 0 1 2.301 2.473v4.305H86.14V13.27c0-1.068-.464-1.6-1.435-1.6a1.524 1.524 0 0 0-1.588 1.685v3.89h-1.312v-6.65zM89.544 8h1.312v9.246h-1.312V8zM92.68 13.918a3.15 3.15 0 1 1 6.273 0 3.152 3.152 0 1 1-6.273 0zm4.922 0c0-1.441-.647-2.284-1.784-2.284-1.14 0-1.782.843-1.782 2.284 0 1.453.642 2.29 1.782 2.29 1.137 0 1.784-.843 1.784-2.29zM100.335 15.365c0-1.197.891-1.887 2.473-1.985l1.801-.104v-.574c0-.702-.464-1.099-1.361-1.099-.733 0-1.24.27-1.386.74h-1.271c.134-1.143 1.209-1.876 2.717-1.876 1.668 0 2.608.83 2.608 2.235v4.544h-1.264v-.935h-.103a2.24 2.24 0 0 1-1.998 1.044 2.008 2.008 0 0 1-2.216-1.99zm4.274-.568v-.556l-1.624.104c-.915.061-1.331.373-1.331.959 0 .598.519.947 1.233.947a1.574 1.574 0 0 0 1.169-.362 1.566 1.566 0 0 0 .553-1.092zM107.641 13.918c0-2.101 1.08-3.432 2.76-3.432a2.196 2.196 0 0 1 2.04 1.166h.098V8h1.312v9.246h-1.258v-1.05h-.103a2.31 2.31 0 0 1-2.089 1.16c-1.691 0-2.76-1.332-2.76-3.438zm1.356 0c0 1.41.665 2.26 1.776 2.26 1.107 0 1.79-.862 1.79-2.254 0-1.386-.691-2.26-1.79-2.26-1.104 0-1.776.855-1.776 2.254zM119.281 13.918a3.157 3.157 0 0 1 .804-2.419 3.164 3.164 0 0 1 2.332-1.031 3.146 3.146 0 0 1 2.989 2.155c.139.417.189.858.147 1.295a3.139 3.139 0 0 1-.803 2.423 3.145 3.145 0 0 1-2.333 1.033 3.15 3.15 0 0 1-3.136-3.456zm4.922 0c0-1.441-.648-2.284-1.784-2.284-1.141 0-1.783.843-1.783 2.284 0 1.453.642 2.29 1.783 2.29 1.136 0 1.784-.843 1.784-2.29zM127.314 10.596h1.263v1.056h.098a1.993 1.993 0 0 1 1.985-1.184 2.161 2.161 0 0 1 2.301 2.473v4.305h-1.312V13.27c0-1.068-.464-1.6-1.435-1.6a1.524 1.524 0 0 0-1.588 1.685v3.89h-1.312v-6.65zM140.377 8.94v1.686h1.441v1.106h-1.441v3.42c0 .696.287 1 .94 1 .168 0 .335-.01.501-.03v1.094a4.314 4.314 0 0 1-.714.067c-1.46 0-2.041-.514-2.041-1.796v-3.755h-1.056v-1.106h1.056V8.94h1.314zM143.61 8h1.301v3.665h.104a2.044 2.044 0 0 1 2.028-1.192 2.189 2.189 0 0 1 2.29 2.48v4.293h-1.314v-3.97c0-1.062-.495-1.6-1.422-1.6a1.556 1.556 0 0 0-1.588 1.02c-.077.213-.106.44-.086.666v3.884h-1.313V8zM156.985 15.45a2.696 2.696 0 0 1-2.881 1.924 3.02 3.02 0 0 1-3.072-3.432 3.068 3.068 0 0 1 3.066-3.474c1.85 0 2.967 1.264 2.967 3.352v.458h-4.696v.073a1.75 1.75 0 0 0 .464 1.345 1.76 1.76 0 0 0 1.307.56 1.59 1.59 0 0 0 1.582-.806h1.263zm-4.616-2.143h3.359a1.618 1.618 0 0 0-.437-1.224 1.613 1.613 0 0 0-1.2-.498 1.7 1.7 0 0 0-1.722 1.722z" fill="#fff"/></svg>